# xmcd CD database file generated by MAGIX_Freedb v0.9beta0
# 
# Track frame offsets:
#      150
#      28568
#      55843
#      84708
#      109940
#      130823
#      168565
#      192565
#      211160
#      228998
#      243705
#      256595
#      268565
#      288370
# 
# Disc length: 4164 seconds
# 
# Revision: 0 
# Processed by: cddbd v1.4PL0 Copyright (c) Steve Scherf et al.
# Submitted via: MAGIX_Freedb v0.9beta0
# 
DISCID=c610420e
DTITLE=Van Morrison - Too long in exile
DYEAR=1993
DGENRE=
TTITLE0=Van Morrison - Too long in exile
TTITLE1=Van Morrison - Bigtime operators
TTITLE2=Van Morrison - Lonely avenue
TTITLE3=Van Morrison - Ball and chain
TTITLE4=Van Morrison - In the forest
TTITLE5=Van Morrison - Till we get the healing done
TTITLE6=Van Morrison - Gloria
TTITLE7=Van Morrison - Good morning little schoolgirl
TTITLE8=Van Morrison - Wasted years
TTITLE9=Van Morrison - The lonesome road
TTITLE10=Van Morrison - Moody's mood for love
TTITLE11=Van Morrison - Close enough for jazz
TTITLE12=Van Morrison - Before the world was made
TTITLE13=Van Morrison - I'll take care of you
EXTD=
EXTT0=
EXTT1=
EXTT2=
EXTT3=
EXTT4=
EXTT5=
EXTT6=
EXTT7=
EXTT8=
EXTT9=
EXTT10=
EXTT11=
EXTT12=
EXTT13=
PLAYORDER=
